<?xml version="1.0" encoding="UTF-8"?>
<svg version="1.1" xmlns="http://www.w3.org/2000/svg" width="512" height="512">
<path d="M0 0 C2.46102725 1.31371561 4.81471088 2.66761321 7.1875 4.125 C8.71274102 5.04169805 10.23883949 5.9569704 11.765625 6.87109375 C12.60029297 7.37237793 13.43496094 7.87366211 14.29492188 8.39013672 C19.31161026 11.37570019 24.37714446 14.27678621 29.4375 17.1875 C31.68622759 18.48302141 33.93492511 19.77859502 36.18359375 21.07421875 C37.31265137 21.72438965 38.44170898 22.37456055 39.60498047 23.04443359 C45.0716998 26.19332054 50.53574887 29.34683264 56 32.5 C58.16665311 33.7500235 60.33331979 35.00002347 62.5 36.25 C66.83333333 38.75 71.16666667 41.25 75.5 43.75 C76.57266113 44.36883057 77.64532227 44.98766113 78.75048828 45.62524414 C80.91557071 46.87435518 83.08060982 48.12354129 85.24560547 49.37280273 C90.68615706 52.51202309 96.12747216 55.64990563 101.5703125 58.78515625 C112.02206149 64.807473 122.46303888 70.84661958 132.875 76.9375 C143.1518105 82.94893737 153.47968989 88.86825315 163.82568359 94.75952148 C164.9492627 95.39962158 166.0728418 96.03972168 167.23046875 96.69921875 C168.22457764 97.26471436 169.21868652 97.83020996 170.24291992 98.4128418 C171.15275635 98.936604 172.06259277 99.46036621 173 100 C173.86946353 100.35429738 174.73892706 100.70859476 175.63473797 101.07362843 C178 103 178 103 178.61523914 106.68002605 C178.63631731 108.25625111 178.62939863 109.83298834 178.60127258 111.40910339 C178.60554471 112.27737977 178.60981683 113.14565614 178.61421841 114.04024392 C178.62248021 116.96118548 178.59491109 119.88070357 178.56762695 122.80151367 C178.56621717 124.89059922 178.56700709 126.97968726 178.56983948 129.06877136 C178.57127776 134.75044635 178.54182104 140.43159667 178.50696969 146.1131494 C178.47577488 152.04686707 178.47278088 157.98059592 178.46684265 163.91438293 C178.45128399 175.15542742 178.41022804 186.39622962 178.3600952 197.63716727 C178.30426472 210.43260612 178.27673106 223.22805636 178.25161803 236.02358663 C178.19931406 262.34919223 178.1113324 288.67458256 178 315 C177.48663841 315.28453946 176.97327682 315.56907892 176.44435883 315.86224079 C174.08956911 317.16781096 171.73521154 318.47415855 169.38085938 319.78051758 C168.57340271 320.22804634 167.76594604 320.6755751 166.934021 321.13666534 C160.74148782 324.57378095 154.60335161 328.09428245 148.5 331.6875 C146.44562799 332.89116363 144.39092877 334.09426893 142.3359375 335.296875 C141.2953418 335.90595703 140.25474609 336.51503906 139.18261719 337.14257812 C133.8410891 340.25997193 128.48351626 343.34942542 123.125 346.4375 C122.04541016 347.05971436 120.96582031 347.68192871 119.85351562 348.32299805 C117.6631748 349.58511517 115.47274498 350.84707785 113.28222656 352.10888672 C107.85340058 355.23680148 102.42680719 358.36858448 97 361.5 C94.83334417 362.75001879 92.6666775 364.00001878 90.5 365.25 C89.4275 365.86875 88.355 366.4875 87.25 367.125 C75.33333333 374 63.41666667 380.875 51.5 387.75 C49.88919556 388.6793335 49.88919556 388.6793335 48.24584961 389.62744141 C46.09307184 390.86939744 43.94024037 392.1112604 41.78735352 393.35302734 C36.75383085 396.25646913 31.72081952 399.160785 26.68978882 402.06854248 C24.91637392 403.09345403 23.14278354 404.11806123 21.36914062 405.14257812 C19.15004227 406.42452738 16.93126984 407.70704107 14.71289062 408.99023438 C12.72493897 410.1383494 10.73341956 411.28031689 8.73779297 412.41503906 C6.96053756 413.44392636 5.2024228 414.50689162 3.46923828 415.60839844 C-2.16031109 419.08737303 -2.16031109 419.08737303 -5.890625 418.69921875 C-10.56095977 416.14696294 -15.1789914 413.53961901 -19.75 410.8125 C-21.91367549 409.53580222 -24.07775166 408.25978329 -26.2421875 406.984375 C-27.35819336 406.32501953 -28.47419922 405.66566406 -29.62402344 404.98632812 C-35.0212633 401.81074644 -40.44764 398.6862344 -45.875 395.5625 C-48.05991376 394.30341652 -50.24480949 393.04430177 -52.4296875 391.78515625 C-53.51475586 391.16012207 -54.59982422 390.53508789 -55.71777344 389.89111328 C-61.14659942 386.76319852 -66.57319281 383.63141552 -72 380.5 C-74.16665583 379.24998121 -76.3333225 377.99998122 -78.5 376.75 C-91.5 369.25 -104.5 361.75 -117.5 354.25 C-119.1092334 353.3216333 -119.1092334 353.3216333 -120.75097656 352.37451172 C-122.91447476 351.12628966 -125.07788643 349.87791761 -127.24121094 348.62939453 C-132.70565017 345.47594744 -138.17163645 342.32523904 -143.640625 339.1796875 C-154.30855676 333.04089825 -164.96050697 326.87714476 -175.5625 320.625 C-176.50319336 320.07118652 -177.44388672 319.51737305 -178.41308594 318.94677734 C-179.26805664 318.44098145 -180.12302734 317.93518555 -181.00390625 317.4140625 C-182.13034546 316.74818115 -182.13034546 316.74818115 -183.27954102 316.06884766 C-185 315 -185 315 -186 314 C-186.1266883 311.31269889 -186.18793464 308.65006712 -186.20773315 305.96116638 C-186.21775993 305.10841049 -186.22778672 304.25565459 -186.23811734 303.37705761 C-186.27040795 300.49676269 -186.29521508 297.61645411 -186.31982422 294.73608398 C-186.34080767 292.67997478 -186.362054 290.62386824 -186.38354492 288.56776428 C-186.57149679 269.77590449 -186.67413291 250.9831556 -186.75568962 232.19056606 C-186.81728245 218.29321177 -186.92081583 204.3974747 -187.07838428 190.50087112 C-187.18538114 180.73693785 -187.2427249 170.97345032 -187.26382077 161.20895821 C-187.27790489 155.37385827 -187.31443546 149.5408742 -187.405056 143.70641899 C-187.48948607 138.21371261 -187.51249883 132.72414195 -187.48869324 127.2308712 C-187.49067101 125.21676962 -187.51487613 123.20254651 -187.56312943 121.18902206 C-187.84495088 108.79540015 -187.84495088 108.79540015 -186 104 C-182.08634098 99.91854967 -178.23608554 98.15229121 -173 96 C-170.82402662 94.77641029 -168.66142901 93.52839867 -166.51953125 92.24609375 C-164.28500298 90.97454154 -162.04928614 89.70507618 -159.8125 88.4375 C-157.34182403 87.03234523 -154.87211894 85.62548727 -152.40234375 84.21875 C-151.78224426 83.86582382 -151.16214478 83.51289764 -150.52325439 83.14927673 C-144.29361915 79.60215944 -138.0824978 76.02320336 -131.875 72.4375 C-130.81128174 71.82318115 -129.74756348 71.2088623 -128.65161133 70.57592773 C-126.50690413 69.33707777 -124.3622912 68.09806459 -122.21777344 66.85888672 C-116.81329355 63.73675395 -111.40652588 60.61858796 -106 57.5 C-103.8333225 56.25001878 -101.66665583 55.00001879 -99.5 53.75 C-86.5 46.25 -86.5 46.25 -83.24951172 44.37475586 C-81.08442929 43.12564482 -78.91939018 41.87645871 -76.75439453 40.62719727 C-71.31384294 37.48797691 -65.87252784 34.35009437 -60.4296875 31.21484375 C-47.76768156 23.91917926 -35.12534544 16.59108043 -22.5078125 9.21875 C-21.61481445 8.70183594 -20.72181641 8.18492188 -19.80175781 7.65234375 C-17.78889487 6.46525274 -15.79545772 5.24499098 -13.81542969 4.00390625 C-12.76000977 3.35292969 -11.70458984 2.70195313 -10.6171875 2.03125 C-9.66183105 1.42861328 -8.70647461 0.82597656 -7.72216797 0.20507812 C-4.53423971 -1.20618769 -3.25707615 -1.1056161 0 0 Z " fill="#2F1160" transform="translate(260,47)"/>
<path d="M0 0 C3.71229983 1.48491993 6.90600693 2.96807308 10.359375 4.90625 C11.38345459 5.47980225 12.40753418 6.05335449 13.46264648 6.64428711 C14.54747314 7.25667236 15.6322998 7.86905762 16.75 8.5 C17.87672119 9.13365479 19.00344238 9.76730957 20.16430664 10.42016602 C26.95517743 14.25000564 33.70984746 18.13335601 40.4152832 22.1105957 C46.72724525 25.85304663 53.07941601 29.52403479 59.4375 33.1875 C60.54472412 33.82550537 61.65194824 34.46351074 62.79272461 35.12084961 C65.06337068 36.42889477 67.33412358 37.73675448 69.60498047 39.04443359 C75.07169975 42.19332051 80.53577646 45.3467849 86 48.5 C92.52232439 52.26365365 99.04513763 56.02644623 105.5703125 59.78515625 C116.02206149 65.807473 126.46303888 71.84661958 136.875 77.9375 C147.1518105 83.94893737 157.47968989 89.86825315 167.82568359 95.75952148 C168.9492627 96.39962158 170.0728418 97.03972168 171.23046875 97.69921875 C172.22457764 98.26471436 173.21868652 98.83020996 174.24291992 99.4128418 C175.15275635 99.936604 176.06259277 100.46036621 177 101 C178.30419529 101.53379508 178.30419529 101.53379508 179.63473797 102.07837391 C182 104 182 104 182.61523914 107.64879131 C182.63631531 109.21011746 182.62940094 110.77196064 182.60127258 112.33317566 C182.60768077 113.62333956 182.60768077 113.62333956 182.61421841 114.93956739 C182.62247985 117.83287488 182.59491179 120.72474515 182.56762695 123.61791992 C182.56621716 125.68730129 182.56700711 127.75668516 182.56983948 129.82606506 C182.57127772 135.45402482 182.54182154 141.08145488 182.50696969 146.70929122 C182.47577434 152.58695419 182.47278084 158.46462847 182.46684265 164.34236145 C182.45128415 175.47715915 182.41022841 186.61171224 182.3600952 197.74640208 C182.30426424 210.42092392 182.27673094 223.09545726 182.25161803 235.77007139 C182.19931442 261.84685002 182.11133306 287.92341133 182 314 C178.6220259 312.67380825 175.48221021 311.24435047 172.32421875 309.453125 C171.42678955 308.94547607 170.52936035 308.43782715 169.60473633 307.91479492 C168.64204834 307.3654126 167.67936035 306.81603027 166.6875 306.25 C165.16322388 305.38435425 165.16322388 305.38435425 163.6081543 304.5012207 C155.48295661 299.87474475 147.4043584 295.17017856 139.33666992 290.44433594 C131.58753226 285.91014007 123.80082131 281.44435477 116 277 C106.27865901 271.46031101 96.59104908 265.86624937 86.93310547 260.21655273 C76.40915375 254.06233258 65.84619863 247.97630004 55.28222656 241.89111328 C49.85340016 238.76319828 44.42683504 235.63136871 39 232.5 C34.71 230.025 30.42 227.55 26 225 C17.42 220.05 8.84 215.1 0 210 C0 140.7 0 71.4 0 0 Z " fill="#1A1A1A" transform="translate(256,46)"/>
<path d="M0 0 C0.30370011 27.2420681 0.53293448 54.48388251 0.67355824 81.72730255 C0.74058875 94.3770456 0.83196905 107.02573681 0.98071289 119.67480469 C1.11029937 130.70000071 1.19415886 141.72443505 1.22315043 152.75037146 C1.2400983 158.58887874 1.27990941 164.42520709 1.37449074 170.26301575 C1.46282379 175.75976576 1.48993632 181.25344306 1.47039986 186.75083542 C1.47397271 188.76656687 1.49979013 190.78240233 1.54967117 192.79751968 C1.84162954 205.20199606 1.84162954 205.20199606 0 210 C-3.91304295 214.08363616 -7.76244757 215.84830976 -13 218 C-15.1759994 219.22354344 -17.33860196 220.4715496 -19.48046875 221.75390625 C-21.71499702 223.02545846 -23.95071386 224.29492382 -26.1875 225.5625 C-28.65817597 226.96765477 -31.12788106 228.37451273 -33.59765625 229.78125 C-34.21775574 230.13417618 -34.83785522 230.48710236 -35.47674561 230.85072327 C-41.70638085 234.39784056 -47.9175022 237.97679664 -54.125 241.5625 C-55.18871826 242.17681885 -56.25243652 242.7911377 -57.34838867 243.42407227 C-59.49309587 244.66292223 -61.6377088 245.90193541 -63.78222656 247.14111328 C-69.18670645 250.26324605 -74.59347412 253.38141204 -80 256.5 C-82.1666775 257.74998122 -84.33334417 258.99998121 -86.5 260.25 C-125.5 282.75 -125.5 282.75 -128.75439453 284.62744141 C-130.9065213 285.86911527 -133.05854073 287.11097522 -135.21044922 288.35302734 C-140.25030977 291.26166823 -145.29117492 294.16851898 -150.33599854 297.06854248 C-152.11749578 298.09275665 -153.89864322 299.11757651 -155.6796875 300.14257812 C-157.91076625 301.42633375 -160.14249573 302.70895939 -162.375 303.99023438 C-167.46473724 306.92039481 -172.49291501 309.88001689 -177.37451172 313.14794922 C-179 314 -179 314 -182 314 C-182.30370267 286.88831747 -182.53293571 259.77688988 -182.67355824 232.66384888 C-182.74058823 220.0746372 -182.83196745 207.48648246 -182.98071289 194.89794922 C-183.11030105 183.92549088 -183.19415925 172.9537979 -183.22315043 161.98059559 C-183.24009804 156.17002934 -183.27990726 150.36165255 -183.37449074 144.55178833 C-183.46282659 139.08129927 -183.48993583 133.61389767 -183.47039986 128.14276314 C-183.4739726 126.13670621 -183.49978853 124.13054473 -183.54967117 122.1251049 C-183.84162926 109.78056458 -183.84162926 109.78056458 -182 105 C-178.08633232 100.92363679 -174.2314012 99.15409292 -169 97 C-166.82409694 95.77628524 -164.66151011 94.5282632 -162.51953125 93.24609375 C-160.28500298 91.97454154 -158.04928614 90.70507618 -155.8125 89.4375 C-153.34182403 88.03234523 -150.87211894 86.62548727 -148.40234375 85.21875 C-147.78224426 84.86582382 -147.16214478 84.51289764 -146.52325439 84.14927673 C-140.29361915 80.60215944 -134.0824978 77.02320336 -127.875 73.4375 C-126.81128174 72.82318115 -125.74756348 72.2088623 -124.65161133 71.57592773 C-122.50690413 70.33707777 -120.3622912 69.09806459 -118.21777344 67.85888672 C-112.81329355 64.73675395 -107.40652588 61.61858796 -102 58.5 C-99.8333225 57.25001878 -97.66665583 56.00001879 -95.5 54.75 C-82.5 47.25 -82.5 47.25 -79.24951172 45.37475586 C-77.08442929 44.12564482 -74.91939018 42.87645871 -72.75439453 41.62719727 C-67.31384294 38.48797691 -61.87252784 35.35009437 -56.4296875 32.21484375 C-43.76768156 24.91917926 -31.12534544 17.59108043 -18.5078125 10.21875 C-17.1760498 9.44144531 -17.1760498 9.44144531 -15.81738281 8.6484375 C-13.76761842 7.44912995 -11.72043249 6.24541217 -9.67480469 5.0390625 C-8.58329102 4.39710937 -7.49177734 3.75515625 -6.3671875 3.09375 C-5.3654248 2.50271484 -4.36366211 1.91167969 -3.33154297 1.30273438 C-1 0 -1 0 0 0 Z " fill="#545455" transform="translate(256,46)"/>
<path d="M0 0 C0 69.3 0 138.6 0 210 C-7.90889133 206.04555433 -15.54580824 202.05605359 -23.125 197.5625 C-25.23402286 196.32231764 -27.34341061 195.08275562 -29.453125 193.84375 C-31.07057617 192.89242187 -31.07057617 192.89242187 -32.72070312 191.921875 C-38.08994733 188.77515892 -43.48208191 185.66841381 -48.875 182.5625 C-50.49365967 181.62966187 -50.49365967 181.62966187 -52.14501953 180.67797852 C-54.33582951 179.41550269 -56.5267476 178.15321444 -58.71777344 176.89111328 C-64.14659942 173.76319852 -69.57319281 170.63141552 -75 167.5 C-77.16665583 166.24998121 -79.3333225 164.99998122 -81.5 163.75 C-88 160 -88 160 -94.5 156.25 C-95.57266113 155.63116943 -96.64532227 155.01233887 -97.75048828 154.37475586 C-99.91557071 153.12564482 -102.08060982 151.87645871 -104.24560547 150.62719727 C-109.68615706 147.48797691 -115.12747216 144.35009437 -120.5703125 141.21484375 C-134.15957457 133.38502802 -147.72697142 125.51920256 -161.26269531 117.59716797 C-163.91806223 116.04780921 -166.57915232 114.50878895 -169.2421875 112.97265625 C-170.80729583 112.06511134 -172.37240026 111.15755971 -173.9375 110.25 C-174.647854 109.84354248 -175.35820801 109.43708496 -176.09008789 109.01831055 C-180.88699581 106.22600838 -180.88699581 106.22600838 -182 104 C-181.3299292 103.63648438 -180.6598584 103.27296875 -179.96948242 102.8984375 C-173.38657661 99.31871355 -166.83535686 95.68793399 -160.3125 92 C-158.82882935 91.16142456 -158.82882935 91.16142456 -157.31518555 90.3059082 C-149.2819667 85.7525052 -141.30257799 81.11075684 -133.33520508 76.44335938 C-125.5864406 71.90968689 -117.80031269 67.44406499 -110 63 C-100.27865901 57.46031101 -90.59104908 51.86624937 -80.93310547 46.21655273 C-70.4193497 40.068295 -59.86670394 33.98802071 -49.31298828 27.90869141 C-44.83581316 25.32928425 -40.35977374 22.74791112 -35.8840332 20.16601562 C-33.69395129 18.902674 -31.50368846 17.63964595 -29.31323242 16.37695312 C-24.26331624 13.46492654 -19.21691424 10.54721164 -14.1796875 7.61328125 C-13.28950928 7.09540039 -12.39933105 6.57751953 -11.48217773 6.04394531 C-9.82695518 5.08031771 -8.17276319 4.11491699 -6.51977539 3.14746094 C-1.11106124 0 -1.11106124 0 0 0 Z " fill="#5523A2" transform="translate(256,256)"/>
<path d="M0 0 C3.71229983 1.48491993 6.90600693 2.96807308 10.359375 4.90625 C11.38345459 5.47980225 12.40753418 6.05335449 13.46264648 6.64428711 C14.54747314 7.25667236 15.6322998 7.86905762 16.75 8.5 C17.87672119 9.13365479 19.00344238 9.76730957 20.16430664 10.42016602 C26.95517743 14.25000564 33.70984746 18.13335601 40.4152832 22.1105957 C46.72724525 25.85304663 53.07941601 29.52403479 59.4375 33.1875 C60.54472412 33.82550537 61.65194824 34.46351074 62.79272461 35.12084961 C65.06337068 36.42889477 67.33412358 37.73675448 69.60498047 39.04443359 C75.07169975 42.19332051 80.53577646 45.3467849 86 48.5 C92.52232439 52.26365365 99.04513763 56.02644623 105.5703125 59.78515625 C116.99243237 66.36660246 128.39649051 72.97689021 139.7746582 79.6340332 C149.14520599 85.10581229 158.56814401 90.48480283 168.00146484 95.84741211 C169.13148926 96.49073486 170.26151367 97.13405762 171.42578125 97.796875 C172.43036377 98.36760742 173.43494629 98.93833984 174.4699707 99.52636719 C176.3509888 100.621979 178.18876691 101.79251127 180 103 C180 103.99 180 104.98 180 106 C178.93193115 106.60920288 178.93193115 106.60920288 177.84228516 107.23071289 C161.60954545 116.49191534 145.39940195 125.7907986 129.21777344 135.14111328 C123.81329355 138.26324605 118.40652588 141.38141204 113 144.5 C110.8333225 145.74998122 108.66665583 146.99998121 106.5 148.25 C67.5 170.75 67.5 170.75 64.24829102 172.62597656 C62.08731012 173.87270256 59.92634002 175.11944727 57.76538086 176.36621094 C52.26181149 179.54145883 46.75803968 182.71635495 41.25390625 185.890625 C40.14337891 186.5312085 39.03285156 187.17179199 37.88867188 187.83178711 C35.69626926 189.09615201 33.50356786 190.35999897 31.31054688 191.62329102 C26.26933721 194.52879483 21.23418434 197.44357174 16.21484375 200.38671875 C15.32917725 200.90459961 14.44351074 201.42248047 13.53100586 201.95605469 C11.88774342 202.91788708 10.24650284 203.88318523 8.60766602 204.85253906 C3.22318174 208 3.22318174 208 1 208 C0.505 208.99 0.505 208.99 0 210 C0 140.7 0 71.4 0 0 Z " fill="#2C2C2C" transform="translate(256,46)"/>
<path d="M0 0 C0 68.97 0 137.94 0 209 C-11.24263039 203.37868481 -11.24263039 203.37868481 -15.3125 200.9765625 C-16.2288623 200.43845947 -17.14522461 199.90035645 -18.08935547 199.34594727 C-19.04986816 198.77803467 -20.01038086 198.21012207 -21 197.625 C-23.12726524 196.37572478 -25.25488158 195.12704725 -27.3828125 193.87890625 C-28.47368164 193.23840332 -29.56455078 192.59790039 -30.68847656 191.93798828 C-36.07000879 188.78857787 -41.47195024 185.67480693 -46.875 182.5625 C-47.95394531 181.94068848 -49.03289062 181.31887695 -50.14453125 180.67822266 C-52.33550936 179.41567477 -54.52659019 178.15330512 -56.71777344 176.89111328 C-62.14659942 173.76319852 -67.57319281 170.63141552 -73 167.5 C-75.16665583 166.24998121 -77.3333225 164.99998122 -79.5 163.75 C-92.5 156.25 -105.5 148.75 -118.5 141.25 C-120.11007935 140.3211499 -120.11007935 140.3211499 -121.75268555 139.37353516 C-123.91049803 138.12858718 -126.06821353 136.8834711 -128.22583008 135.63818359 C-133.77716592 132.43447349 -139.33036541 129.2340637 -144.88671875 126.0390625 C-150.31559683 122.91674236 -155.73831757 119.7839843 -161.15673828 116.64355469 C-163.75464876 115.14182591 -166.35903574 113.6520244 -168.96484375 112.1640625 C-170.35199871 111.36012719 -171.73875756 110.55550776 -173.125 109.75 C-173.74076904 109.40340332 -174.35653809 109.05680664 -174.9909668 108.69970703 C-176.6328125 107.734375 -176.6328125 107.734375 -179 106 C-179 105.01 -179 104.02 -179 103 C-177.20947266 101.61230469 -177.20947266 101.61230469 -174.6640625 100.171875 C-173.71547363 99.62732666 -172.76688477 99.08277832 -171.78955078 98.52172852 C-170.74524902 97.93705811 -169.70094727 97.3523877 -168.625 96.75 C-167.54589355 96.13374756 -166.46678711 95.51749512 -165.35498047 94.88256836 C-163.06319851 93.57408809 -160.76964258 92.2694631 -158.47265625 90.97021484 C-154.07879501 88.47735347 -149.70584581 85.94928665 -145.33349609 83.41894531 C-142.08128425 81.53720594 -138.82623499 79.66046702 -135.5703125 77.78515625 C-129.04513757 74.02644619 -122.5223655 70.2635825 -116 66.5 C-113.83334417 65.24998121 -111.6666775 63.99998122 -109.5 62.75 C-108.4275 62.13125 -107.355 61.5125 -106.25 60.875 C-70.5 40.25 -70.5 40.25 -67.24951172 38.37475586 C-65.08442929 37.12564482 -62.91939018 35.87645871 -60.75439453 34.62719727 C-55.31384294 31.48797691 -49.87252784 28.35009437 -44.4296875 25.21484375 C-42.24474762 23.95580561 -40.05985151 22.69669149 -37.875 21.4375 C-36.81547119 20.82704834 -35.75594238 20.21659668 -34.66430664 19.58764648 C-29.12158455 16.39058916 -23.5875513 13.17944404 -18.06640625 9.9453125 C-16.95346191 9.29377197 -15.84051758 8.64223145 -14.69384766 7.97094727 C-12.56082811 6.72084876 -10.42894736 5.46880464 -8.29833984 4.21459961 C-7.35297363 3.6603833 -6.40760742 3.10616699 -5.43359375 2.53515625 C-4.18147095 1.79857788 -4.18147095 1.79857788 -2.90405273 1.04711914 C-1 0 -1 0 0 0 Z " fill="#444444" transform="translate(256,46)"/>
</svg>
