<?xml version="1.0" encoding="UTF-8"?>
<svg xmlns="http://www.w3.org/2000/svg" xmlns:xlink="http://www.w3.org/1999/xlink" width="32px" height="32px" viewBox="0 0 32 32" version="1.1">
<g id="surface1">
<path style=" stroke:none;fill-rule:nonzero;fill:rgb(18.431373%,6.666667%,37.64706%);fill-opacity:1;" d="M 16.25 2.9375 C 16.402344 3.019531 16.550781 3.105469 16.699219 3.195312 C 16.792969 3.253906 16.890625 3.308594 16.984375 3.367188 C 17.039062 3.398438 17.089844 3.429688 17.144531 3.460938 C 17.457031 3.648438 17.773438 3.828125 18.089844 4.011719 C 18.230469 4.09375 18.371094 4.171875 18.511719 4.253906 C 18.582031 4.296875 18.652344 4.335938 18.726562 4.378906 C 19.066406 4.574219 19.410156 4.773438 19.75 4.96875 C 19.886719 5.046875 20.019531 5.125 20.15625 5.203125 C 20.425781 5.359375 20.699219 5.515625 20.96875 5.671875 C 21.035156 5.710938 21.101562 5.75 21.171875 5.789062 C 21.308594 5.867188 21.441406 5.945312 21.578125 6.023438 C 21.917969 6.21875 22.257812 6.414062 22.597656 6.613281 C 23.25 6.988281 23.902344 7.367188 24.554688 7.746094 C 25.195312 8.121094 25.84375 8.492188 26.488281 8.859375 C 26.558594 8.898438 26.628906 8.941406 26.703125 8.980469 C 26.765625 9.015625 26.824219 9.050781 26.890625 9.089844 C 26.945312 9.121094 27.003906 9.152344 27.0625 9.1875 C 27.117188 9.210938 27.171875 9.230469 27.226562 9.253906 C 27.375 9.375 27.375 9.375 27.414062 9.605469 C 27.414062 9.703125 27.414062 9.800781 27.414062 9.902344 C 27.414062 9.953125 27.414062 10.007812 27.414062 10.066406 C 27.414062 10.246094 27.414062 10.429688 27.410156 10.613281 C 27.410156 10.742188 27.410156 10.875 27.410156 11.003906 C 27.410156 11.359375 27.410156 11.714844 27.40625 12.070312 C 27.40625 12.441406 27.40625 12.8125 27.402344 13.183594 C 27.402344 13.882812 27.402344 14.585938 27.398438 15.289062 C 27.394531 16.089844 27.390625 16.890625 27.390625 17.6875 C 27.386719 19.335938 27.382812 20.980469 27.375 22.625 C 27.34375 22.644531 27.3125 22.660156 27.277344 22.679688 C 27.128906 22.761719 26.984375 22.84375 26.835938 22.921875 C 26.785156 22.953125 26.734375 22.980469 26.683594 23.007812 C 26.296875 23.222656 25.914062 23.445312 25.53125 23.667969 C 25.402344 23.742188 25.273438 23.820312 25.144531 23.894531 C 25.082031 23.929688 25.015625 23.96875 24.949219 24.007812 C 24.613281 24.203125 24.28125 24.398438 23.945312 24.589844 C 23.878906 24.628906 23.808594 24.667969 23.742188 24.707031 C 23.605469 24.785156 23.46875 24.867188 23.332031 24.945312 C 22.992188 25.140625 22.652344 25.335938 22.3125 25.53125 C 22.175781 25.609375 22.042969 25.6875 21.90625 25.765625 C 21.839844 25.804688 21.773438 25.84375 21.703125 25.882812 C 20.957031 26.3125 20.214844 26.742188 19.46875 27.171875 C 19.367188 27.230469 19.367188 27.230469 19.265625 27.289062 C 19.128906 27.367188 18.996094 27.445312 18.863281 27.523438 C 18.546875 27.703125 18.234375 27.886719 17.917969 28.066406 C 17.808594 28.128906 17.695312 28.195312 17.585938 28.257812 C 17.445312 28.339844 17.308594 28.417969 17.167969 28.5 C 17.046875 28.570312 16.921875 28.640625 16.796875 28.714844 C 16.683594 28.777344 16.574219 28.84375 16.46875 28.914062 C 16.113281 29.128906 16.113281 29.128906 15.882812 29.105469 C 15.589844 28.945312 15.300781 28.785156 15.015625 28.613281 C 14.878906 28.535156 14.746094 28.453125 14.609375 28.375 C 14.539062 28.332031 14.46875 28.292969 14.398438 28.25 C 14.0625 28.050781 13.722656 27.855469 13.382812 27.660156 C 13.246094 27.582031 13.109375 27.503906 12.972656 27.425781 C 12.90625 27.386719 12.835938 27.347656 12.769531 27.304688 C 12.429688 27.109375 12.089844 26.914062 11.75 26.71875 C 11.613281 26.640625 11.480469 26.5625 11.34375 26.484375 C 10.53125 26.015625 9.71875 25.546875 8.90625 25.078125 C 8.804688 25.019531 8.804688 25.019531 8.703125 24.960938 C 8.566406 24.882812 8.433594 24.804688 8.296875 24.726562 C 7.957031 24.53125 7.613281 24.332031 7.273438 24.136719 C 6.605469 23.753906 5.941406 23.367188 5.277344 22.976562 C 5.21875 22.941406 5.160156 22.90625 5.097656 22.871094 C 5.046875 22.839844 4.992188 22.808594 4.9375 22.777344 C 4.867188 22.734375 4.867188 22.734375 4.796875 22.691406 C 4.6875 22.625 4.6875 22.625 4.625 22.5625 C 4.617188 22.394531 4.613281 22.226562 4.613281 22.058594 C 4.613281 22.007812 4.609375 21.953125 4.609375 21.898438 C 4.609375 21.71875 4.605469 21.539062 4.605469 21.359375 C 4.605469 21.230469 4.601562 21.101562 4.601562 20.972656 C 4.589844 19.796875 4.582031 18.625 4.578125 17.449219 C 4.574219 16.582031 4.566406 15.710938 4.558594 14.84375 C 4.550781 14.234375 4.546875 13.625 4.546875 13.011719 C 4.546875 12.648438 4.542969 12.285156 4.539062 11.917969 C 4.53125 11.574219 4.53125 11.234375 4.53125 10.890625 C 4.53125 10.761719 4.53125 10.636719 4.527344 10.511719 C 4.507812 9.738281 4.507812 9.738281 4.625 9.4375 C 4.871094 9.183594 5.109375 9.070312 5.4375 8.9375 C 5.574219 8.859375 5.707031 8.78125 5.84375 8.703125 C 5.980469 8.625 6.121094 8.542969 6.261719 8.464844 C 6.417969 8.378906 6.570312 8.289062 6.726562 8.203125 C 6.761719 8.179688 6.800781 8.15625 6.84375 8.132812 C 7.230469 7.914062 7.621094 7.6875 8.007812 7.464844 C 8.074219 7.425781 8.140625 7.386719 8.210938 7.347656 C 8.34375 7.269531 8.476562 7.195312 8.613281 7.117188 C 8.949219 6.921875 9.285156 6.726562 9.625 6.53125 C 9.761719 6.453125 9.894531 6.375 10.03125 6.296875 C 10.84375 5.828125 10.84375 5.828125 11.046875 5.710938 C 11.183594 5.632812 11.316406 5.554688 11.453125 5.476562 C 11.792969 5.28125 12.132812 5.085938 12.472656 4.886719 C 13.265625 4.433594 14.054688 3.972656 14.84375 3.515625 C 14.898438 3.480469 14.953125 3.449219 15.011719 3.414062 C 15.136719 3.339844 15.261719 3.265625 15.386719 3.1875 C 15.453125 3.148438 15.519531 3.105469 15.585938 3.0625 C 15.644531 3.027344 15.707031 2.988281 15.765625 2.949219 C 15.964844 2.863281 16.046875 2.867188 16.25 2.9375 Z M 16.25 2.9375 "/>
<path style=" stroke:none;fill-rule:nonzero;fill:rgb(10.196079%,10.196079%,10.196079%);fill-opacity:1;" d="M 16 2.875 C 16.230469 2.96875 16.429688 3.058594 16.648438 3.179688 C 16.710938 3.21875 16.777344 3.253906 16.839844 3.289062 C 16.910156 3.328125 16.976562 3.367188 17.046875 3.40625 C 17.117188 3.445312 17.1875 3.484375 17.261719 3.527344 C 17.683594 3.765625 18.105469 4.007812 18.527344 4.257812 C 18.921875 4.492188 19.316406 4.71875 19.714844 4.949219 C 19.785156 4.988281 19.851562 5.027344 19.925781 5.070312 C 20.066406 5.152344 20.207031 5.234375 20.351562 5.316406 C 20.691406 5.511719 21.035156 5.710938 21.375 5.90625 C 21.78125 6.140625 22.191406 6.375 22.597656 6.613281 C 23.25 6.988281 23.902344 7.367188 24.554688 7.746094 C 25.195312 8.121094 25.84375 8.492188 26.488281 8.859375 C 26.558594 8.898438 26.628906 8.941406 26.703125 8.980469 C 26.765625 9.015625 26.824219 9.050781 26.890625 9.089844 C 26.945312 9.121094 27.003906 9.152344 27.0625 9.1875 C 27.144531 9.222656 27.144531 9.222656 27.226562 9.253906 C 27.375 9.375 27.375 9.375 27.414062 9.601562 C 27.414062 9.699219 27.414062 9.796875 27.414062 9.894531 C 27.414062 9.976562 27.414062 9.976562 27.414062 10.058594 C 27.414062 10.238281 27.414062 10.421875 27.410156 10.601562 C 27.410156 10.730469 27.410156 10.859375 27.410156 10.988281 C 27.410156 11.339844 27.410156 11.691406 27.40625 12.042969 C 27.40625 12.410156 27.40625 12.777344 27.402344 13.144531 C 27.402344 13.84375 27.402344 14.539062 27.398438 15.234375 C 27.394531 16.027344 27.390625 16.820312 27.390625 17.609375 C 27.386719 19.242188 27.382812 20.871094 27.375 22.5 C 27.164062 22.417969 26.96875 22.328125 26.769531 22.214844 C 26.714844 22.183594 26.65625 22.152344 26.601562 22.121094 C 26.539062 22.085938 26.480469 22.050781 26.417969 22.015625 C 26.324219 21.960938 26.324219 21.960938 26.226562 21.90625 C 25.71875 21.617188 25.210938 21.324219 24.707031 21.027344 C 24.222656 20.746094 23.738281 20.464844 23.25 20.1875 C 22.640625 19.839844 22.035156 19.492188 21.433594 19.136719 C 20.777344 18.753906 20.117188 18.375 19.457031 17.992188 C 19.117188 17.796875 18.777344 17.601562 18.4375 17.40625 C 18.167969 17.25 17.902344 17.097656 17.625 16.9375 C 17.089844 16.628906 16.550781 16.320312 16 16 C 16 11.667969 16 7.335938 16 2.875 Z M 16 2.875 "/>
<path style=" stroke:none;fill-rule:nonzero;fill:rgb(32.941177%,32.941177%,33.333334%);fill-opacity:1;" d="M 16 2.875 C 16.019531 4.578125 16.035156 6.28125 16.042969 7.984375 C 16.046875 8.773438 16.050781 9.5625 16.0625 10.355469 C 16.070312 11.042969 16.074219 11.734375 16.078125 12.421875 C 16.078125 12.785156 16.078125 13.152344 16.085938 13.515625 C 16.089844 13.859375 16.09375 14.203125 16.09375 14.546875 C 16.09375 14.671875 16.09375 14.800781 16.097656 14.925781 C 16.113281 15.699219 16.113281 15.699219 16 16 C 15.753906 16.253906 15.515625 16.367188 15.1875 16.5 C 15.050781 16.578125 14.917969 16.65625 14.78125 16.734375 C 14.644531 16.8125 14.503906 16.894531 14.363281 16.972656 C 14.207031 17.058594 14.054688 17.148438 13.898438 17.234375 C 13.863281 17.257812 13.824219 17.28125 13.78125 17.304688 C 13.394531 17.523438 13.003906 17.75 12.617188 17.972656 C 12.550781 18.011719 12.484375 18.050781 12.414062 18.089844 C 12.28125 18.167969 12.148438 18.242188 12.011719 18.320312 C 11.675781 18.515625 11.339844 18.710938 11 18.90625 C 10.863281 18.984375 10.730469 19.0625 10.59375 19.140625 C 8.15625 20.546875 8.15625 20.546875 7.953125 20.664062 C 7.816406 20.742188 7.683594 20.820312 7.550781 20.898438 C 7.234375 21.078125 6.917969 21.261719 6.605469 21.441406 C 6.492188 21.503906 6.382812 21.570312 6.269531 21.632812 C 6.128906 21.714844 5.992188 21.792969 5.851562 21.875 C 5.535156 22.058594 5.21875 22.242188 4.914062 22.445312 C 4.8125 22.5 4.8125 22.5 4.625 22.5 C 4.605469 20.804688 4.589844 19.109375 4.582031 17.417969 C 4.578125 16.628906 4.574219 15.84375 4.5625 15.054688 C 4.554688 14.371094 4.550781 13.683594 4.546875 13 C 4.546875 12.636719 4.546875 12.273438 4.539062 11.910156 C 4.535156 11.566406 4.53125 11.226562 4.53125 10.882812 C 4.53125 10.757812 4.53125 10.632812 4.527344 10.507812 C 4.511719 9.734375 4.511719 9.734375 4.625 9.4375 C 4.871094 9.183594 5.109375 9.070312 5.4375 8.9375 C 5.574219 8.859375 5.707031 8.78125 5.84375 8.703125 C 5.980469 8.625 6.121094 8.542969 6.261719 8.464844 C 6.417969 8.378906 6.570312 8.289062 6.726562 8.203125 C 6.761719 8.179688 6.800781 8.15625 6.84375 8.132812 C 7.230469 7.914062 7.621094 7.6875 8.007812 7.464844 C 8.074219 7.425781 8.140625 7.386719 8.210938 7.347656 C 8.34375 7.269531 8.476562 7.195312 8.613281 7.117188 C 8.949219 6.921875 9.285156 6.726562 9.625 6.53125 C 9.761719 6.453125 9.894531 6.375 10.03125 6.296875 C 10.84375 5.828125 10.84375 5.828125 11.046875 5.710938 C 11.183594 5.632812 11.316406 5.554688 11.453125 5.476562 C 11.792969 5.28125 12.132812 5.085938 12.472656 4.886719 C 13.265625 4.433594 14.054688 3.972656 14.84375 3.515625 C 14.925781 3.464844 14.925781 3.464844 15.011719 3.414062 C 15.140625 3.339844 15.265625 3.265625 15.394531 3.191406 C 15.464844 3.148438 15.53125 3.109375 15.601562 3.070312 C 15.664062 3.03125 15.726562 2.996094 15.792969 2.957031 C 15.9375 2.875 15.9375 2.875 16 2.875 Z M 16 2.875 "/>
<path style=" stroke:none;fill-rule:nonzero;fill:rgb(33.333334%,13.725491%,63.529414%);fill-opacity:1;" d="M 16 16 C 16 20.332031 16 24.664062 16 29.125 C 15.503906 28.878906 15.027344 28.628906 14.554688 28.347656 C 14.421875 28.269531 14.292969 28.191406 14.160156 28.117188 C 14.058594 28.054688 14.058594 28.054688 13.953125 27.996094 C 13.621094 27.796875 13.28125 27.605469 12.945312 27.410156 C 12.84375 27.351562 12.84375 27.351562 12.742188 27.292969 C 12.605469 27.214844 12.46875 27.132812 12.332031 27.054688 C 11.992188 26.859375 11.652344 26.664062 11.3125 26.46875 C 11.175781 26.390625 11.042969 26.3125 10.90625 26.234375 C 10.5 26 10.5 26 10.09375 25.765625 C 10.027344 25.726562 9.960938 25.6875 9.890625 25.648438 C 9.753906 25.570312 9.621094 25.492188 9.484375 25.414062 C 9.144531 25.21875 8.804688 25.023438 8.464844 24.824219 C 7.613281 24.335938 6.765625 23.84375 5.921875 23.351562 C 5.753906 23.253906 5.589844 23.15625 5.421875 23.0625 C 5.324219 23.003906 5.226562 22.949219 5.128906 22.890625 C 5.085938 22.863281 5.039062 22.839844 4.996094 22.8125 C 4.695312 22.640625 4.695312 22.640625 4.625 22.5 C 4.667969 22.476562 4.707031 22.453125 4.75 22.429688 C 5.164062 22.207031 5.574219 21.980469 5.980469 21.75 C 6.074219 21.699219 6.074219 21.699219 6.167969 21.644531 C 6.667969 21.359375 7.167969 21.070312 7.667969 20.777344 C 8.152344 20.496094 8.636719 20.214844 9.125 19.9375 C 9.734375 19.589844 10.339844 19.242188 10.941406 18.886719 C 11.597656 18.503906 12.257812 18.125 12.917969 17.746094 C 13.199219 17.582031 13.476562 17.421875 13.757812 17.261719 C 13.894531 17.179688 14.03125 17.101562 14.167969 17.023438 C 14.484375 16.839844 14.800781 16.660156 15.113281 16.476562 C 15.167969 16.445312 15.226562 16.410156 15.28125 16.378906 C 15.386719 16.316406 15.488281 16.257812 15.59375 16.195312 C 15.929688 16 15.929688 16 16 16 Z M 16 16 "/>
<path style=" stroke:none;fill-rule:nonzero;fill:rgb(17.254902%,17.254902%,17.254902%);fill-opacity:1;" d="M 16 2.875 C 16.230469 2.96875 16.429688 3.058594 16.648438 3.179688 C 16.710938 3.21875 16.777344 3.253906 16.839844 3.289062 C 16.910156 3.328125 16.976562 3.367188 17.046875 3.40625 C 17.117188 3.445312 17.1875 3.484375 17.261719 3.527344 C 17.683594 3.765625 18.105469 4.007812 18.527344 4.257812 C 18.921875 4.492188 19.316406 4.71875 19.714844 4.949219 C 19.785156 4.988281 19.851562 5.027344 19.925781 5.070312 C 20.066406 5.152344 20.207031 5.234375 20.351562 5.316406 C 20.691406 5.511719 21.035156 5.710938 21.375 5.90625 C 21.78125 6.140625 22.191406 6.375 22.597656 6.613281 C 23.3125 7.023438 24.023438 7.4375 24.734375 7.851562 C 25.320312 8.195312 25.910156 8.53125 26.5 8.867188 C 26.570312 8.90625 26.640625 8.945312 26.714844 8.988281 C 26.777344 9.023438 26.839844 9.058594 26.90625 9.09375 C 27.023438 9.164062 27.136719 9.238281 27.25 9.3125 C 27.25 9.375 27.25 9.4375 27.25 9.5 C 27.183594 9.539062 27.183594 9.539062 27.113281 9.578125 C 26.101562 10.15625 25.085938 10.738281 24.074219 11.320312 C 23.738281 11.515625 23.402344 11.710938 23.0625 11.90625 C 22.925781 11.984375 22.792969 12.0625 22.65625 12.140625 C 20.21875 13.546875 20.21875 13.546875 20.015625 13.664062 C 19.878906 13.742188 19.746094 13.820312 19.609375 13.898438 C 19.265625 14.097656 18.921875 14.292969 18.578125 14.492188 C 18.507812 14.53125 18.441406 14.574219 18.367188 14.613281 C 18.230469 14.695312 18.09375 14.773438 17.957031 14.851562 C 17.640625 15.03125 17.328125 15.214844 17.011719 15.398438 C 16.957031 15.429688 16.902344 15.464844 16.84375 15.496094 C 16.742188 15.558594 16.640625 15.617188 16.539062 15.679688 C 16.203125 15.875 16.203125 15.875 16.0625 15.875 C 16.03125 15.9375 16.03125 15.9375 16 16 C 16 11.667969 16 7.335938 16 2.875 Z M 16 2.875 "/>
<path style=" stroke:none;fill-rule:nonzero;fill:rgb(26.666668%,26.666668%,26.666668%);fill-opacity:1;" d="M 16 2.875 C 16 7.1875 16 11.496094 16 15.9375 C 15.296875 15.585938 15.296875 15.585938 15.042969 15.4375 C 14.984375 15.402344 14.929688 15.367188 14.871094 15.335938 C 14.808594 15.296875 14.75 15.261719 14.6875 15.226562 C 14.554688 15.148438 14.421875 15.070312 14.289062 14.992188 C 14.21875 14.953125 14.152344 14.914062 14.082031 14.871094 C 13.746094 14.675781 13.40625 14.480469 13.070312 14.285156 C 13.003906 14.246094 12.933594 14.207031 12.867188 14.167969 C 12.730469 14.089844 12.59375 14.007812 12.457031 13.929688 C 12.117188 13.734375 11.777344 13.539062 11.4375 13.34375 C 11.300781 13.265625 11.167969 13.1875 11.03125 13.109375 C 10.21875 12.640625 9.40625 12.171875 8.59375 11.703125 C 8.492188 11.644531 8.492188 11.644531 8.390625 11.585938 C 8.253906 11.507812 8.121094 11.429688 7.984375 11.351562 C 7.640625 11.152344 7.292969 10.953125 6.945312 10.753906 C 6.605469 10.558594 6.265625 10.363281 5.925781 10.164062 C 5.765625 10.070312 5.601562 9.976562 5.441406 9.886719 C 5.351562 9.835938 5.265625 9.785156 5.179688 9.734375 C 5.140625 9.710938 5.101562 9.691406 5.0625 9.667969 C 4.960938 9.609375 4.960938 9.609375 4.8125 9.5 C 4.8125 9.4375 4.8125 9.375 4.8125 9.3125 C 4.925781 9.226562 4.925781 9.226562 5.082031 9.136719 C 5.144531 9.101562 5.203125 9.066406 5.261719 9.03125 C 5.328125 8.996094 5.394531 8.960938 5.460938 8.921875 C 5.527344 8.882812 5.597656 8.84375 5.664062 8.804688 C 5.808594 8.722656 5.953125 8.640625 6.09375 8.5625 C 6.371094 8.40625 6.644531 8.246094 6.917969 8.089844 C 7.121094 7.972656 7.324219 7.855469 7.527344 7.738281 C 7.933594 7.5 8.34375 7.265625 8.75 7.03125 C 8.886719 6.953125 9.019531 6.875 9.15625 6.796875 C 9.222656 6.757812 9.289062 6.71875 9.359375 6.679688 C 11.59375 5.390625 11.59375 5.390625 11.796875 5.273438 C 11.933594 5.195312 12.066406 5.117188 12.203125 5.039062 C 12.542969 4.84375 12.882812 4.648438 13.222656 4.449219 C 13.359375 4.371094 13.496094 4.292969 13.632812 4.214844 C 13.699219 4.175781 13.765625 4.136719 13.832031 4.097656 C 14.179688 3.898438 14.527344 3.699219 14.871094 3.496094 C 14.941406 3.457031 15.011719 3.414062 15.082031 3.375 C 15.214844 3.296875 15.347656 3.21875 15.480469 3.136719 C 15.539062 3.105469 15.597656 3.070312 15.660156 3.035156 C 15.738281 2.988281 15.738281 2.988281 15.820312 2.941406 C 15.9375 2.875 15.9375 2.875 16 2.875 Z M 16 2.875 "/>
</g>
</svg>
